<svg width="18" height="20" viewBox="0 0 18 20" fill="none" xmlns="http://www.w3.org/2000/svg">
<path d="M6.7952 17.5C7.38281 18.0186 8.15468 18.3333 9.00006 18.3333C9.84543 18.3333 10.6173 18.0186 11.2049 17.5M14.0001 6.66666C14.0001 5.34057 13.4733 4.0688 12.5356 3.13112C11.5979 2.19344 10.3261 1.66666 9.00006 1.66666C7.67397 1.66666 6.4022 2.19344 5.46452 3.13112C4.52684 4.0688 4.00006 5.34057 4.00006 6.66666C4.00006 9.24181 3.35045 11.005 2.62478 12.1712C2.01266 13.1549 1.7066 13.6467 1.71783 13.784C1.73025 13.9359 1.76244 13.9938 1.88487 14.0846C1.99544 14.1667 2.49388 14.1667 3.49077 14.1667H14.5093C15.5062 14.1667 16.0047 14.1667 16.1152 14.0846C16.2377 13.9938 16.2699 13.9359 16.2823 13.784C16.2935 13.6467 15.9875 13.1549 15.3753 12.1712C14.6497 11.005 14.0001 9.24181 14.0001 6.66666Z" stroke="#667085" stroke-width="1.66667" stroke-linecap="round" stroke-linejoin="round"/>
</svg>
