<svg width="48" height="48" viewBox="0 0 48 48" fill="none" xmlns="http://www.w3.org/2000/svg">
<g clip-path="url(#clip0_10_23875)">
<rect width="48" height="48" rx="12" fill="white"/>
<rect width="48" height="48" rx="12" fill="url(#paint0_linear_10_23875)"/>
<path fill-rule="evenodd" clip-rule="evenodd" d="M24.0001 3.05828C12.4343 3.05828 3.0584 12.4342 3.0584 24C3.0584 35.5658 12.4343 44.9418 24.0001 44.9418C35.566 44.9418 44.9419 35.5658 44.9419 24C44.9419 12.4342 35.566 3.05828 24.0001 3.05828ZM2.94189 24C2.94189 12.3699 12.37 2.94177 24.0001 2.94177C35.6303 2.94177 45.0584 12.3699 45.0584 24C45.0584 35.6302 35.6303 45.0583 24.0001 45.0583C12.37 45.0583 2.94189 35.6302 2.94189 24Z" fill="#D0D5DD"/>
<path fill-rule="evenodd" clip-rule="evenodd" d="M24 18.1169C20.7506 18.1169 18.1165 20.751 18.1165 24.0004C18.1165 27.2497 20.7506 29.8839 24 29.8839C27.2494 29.8839 29.8835 27.2497 29.8835 24.0004C29.8835 20.751 27.2494 18.1169 24 18.1169ZM18 24.0004C18 20.6867 20.6863 18.0004 24 18.0004C27.3137 18.0004 30 20.6867 30 24.0004C30 27.3141 27.3137 30.0004 24 30.0004C20.6863 30.0004 18 27.3141 18 24.0004Z" fill="#D0D5DD"/>
<path fill-rule="evenodd" clip-rule="evenodd" d="M23.9999 19.9802C21.7801 19.9802 19.9805 21.7797 19.9805 23.9996C19.9805 26.2194 21.7801 28.019 23.9999 28.019C26.2198 28.019 28.0194 26.2194 28.0194 23.9996C28.0194 21.7797 26.2198 19.9802 23.9999 19.9802ZM19.864 23.9996C19.864 21.7154 21.7157 19.8636 23.9999 19.8636C26.2841 19.8636 28.1359 21.7154 28.1359 23.9996C28.1359 26.2838 26.2841 28.1355 23.9999 28.1355C21.7157 28.1355 19.864 26.2838 19.864 23.9996Z" fill="#D0D5DD"/>
<path d="M23.9419 0H24.0584V48H23.9419V0Z" fill="#D0D5DD"/>
<path d="M48 23.9414L48 24.0579L-5.09259e-09 24.0579L0 23.9414L48 23.9414Z" fill="#D0D5DD"/>
<path d="M39.9028 0H40.0193V48H39.9028V0Z" fill="#D0D5DD"/>
<path d="M15.9612 0H16.0777V48H15.9612V0Z" fill="#D0D5DD"/>
<path d="M31.9224 0H32.0389V48H31.9224V0Z" fill="#D0D5DD"/>
<path d="M7.98047 0H8.09697V48H7.98047V0Z" fill="#D0D5DD"/>
<path d="M48 39.9023L48 40.0188L-5.09259e-09 40.0188L0 39.9023L48 39.9023Z" fill="#D0D5DD"/>
<path d="M48 15.9609L48 16.0774L-5.09259e-09 16.0774L0 15.9609L48 15.9609Z" fill="#D0D5DD"/>
<path d="M48 31.9219L48 32.0384L-5.09259e-09 32.0384L0 31.9219L48 31.9219Z" fill="#D0D5DD"/>
<path d="M48 7.98047L48 8.09697L-5.09259e-09 8.09697L0 7.98047L48 7.98047Z" fill="#D0D5DD"/>
<g filter="url(#filter0_dd_10_23875)">
<circle cx="24" cy="24" r="12" fill="url(#paint1_linear_10_23875)"/>
</g>
<g filter="url(#filter1_b_10_23875)">
<path d="M0 24H48V28.8C48 35.5206 48 38.8809 46.6921 41.4479C45.5416 43.7058 43.7058 45.5416 41.4479 46.6921C38.8809 48 35.5206 48 28.8 48H19.2C12.4794 48 9.11905 48 6.55211 46.6921C4.29417 45.5416 2.4584 43.7058 1.30792 41.4479C0 38.8809 0 35.5206 0 28.8V24Z" fill="white" fill-opacity="0.2"/>
</g>
</g>
<rect x="0.15" y="0.15" width="47.7" height="47.7" rx="11.85" stroke="#D0D5DD" stroke-width="0.3"/>
<defs>
<filter id="filter0_dd_10_23875" x="9" y="10" width="30" height="30" filterUnits="userSpaceOnUse" color-interpolation-filters="sRGB">
<feFlood flood-opacity="0" result="BackgroundImageFix"/>
<feColorMatrix in="SourceAlpha" type="matrix" values="0 0 0 0 0 0 0 0 0 0 0 0 0 0 0 0 0 0 127 0" result="hardAlpha"/>
<feOffset dy="1"/>
<feGaussianBlur stdDeviation="1"/>
<feColorMatrix type="matrix" values="0 0 0 0 0.0627451 0 0 0 0 0.0941176 0 0 0 0 0.156863 0 0 0 0.06 0"/>
<feBlend mode="normal" in2="BackgroundImageFix" result="effect1_dropShadow_10_23875"/>
<feColorMatrix in="SourceAlpha" type="matrix" values="0 0 0 0 0 0 0 0 0 0 0 0 0 0 0 0 0 0 127 0" result="hardAlpha"/>
<feOffset dy="1"/>
<feGaussianBlur stdDeviation="1.5"/>
<feColorMatrix type="matrix" values="0 0 0 0 0.0627451 0 0 0 0 0.0941176 0 0 0 0 0.156863 0 0 0 0.1 0"/>
<feBlend mode="normal" in2="effect1_dropShadow_10_23875" result="effect2_dropShadow_10_23875"/>
<feBlend mode="normal" in="SourceGraphic" in2="effect2_dropShadow_10_23875" result="shape"/>
</filter>
<filter id="filter1_b_10_23875" x="-7.5" y="16.5" width="63" height="39" filterUnits="userSpaceOnUse" color-interpolation-filters="sRGB">
<feFlood flood-opacity="0" result="BackgroundImageFix"/>
<feGaussianBlur in="BackgroundImageFix" stdDeviation="3.75"/>
<feComposite in2="SourceAlpha" operator="in" result="effect1_backgroundBlur_10_23875"/>
<feBlend mode="normal" in="SourceGraphic" in2="effect1_backgroundBlur_10_23875" result="shape"/>
</filter>
<linearGradient id="paint0_linear_10_23875" x1="24" y1="0" x2="24" y2="48" gradientUnits="userSpaceOnUse">
<stop stop-color="white"/>
<stop offset="1" stop-color="#D0D5DD"/>
</linearGradient>
<linearGradient id="paint1_linear_10_23875" x1="18" y1="36" x2="30" y2="12" gradientUnits="userSpaceOnUse">
<stop stop-color="#53389E"/>
<stop offset="1" stop-color="#6941C6"/>
</linearGradient>
<clipPath id="clip0_10_23875">
<rect width="48" height="48" rx="12" fill="white"/>
</clipPath>
</defs>
</svg>
